<svg width="180" height="45" viewBox="0 0 180 45" fill="none" xmlns="http://www.w3.org/2000/svg">
<path d="M14.5326 14.4004L14.5328 14.4001C16.7997 12.1534 19.7779 11.0359 22.7567 11.0359C25.7355 11.0359 28.7137 12.1534 30.9806 14.4001L30.9811 14.4006C33.26 16.6354 34.3935 19.5714 34.3935 22.5081C34.3935 25.4323 33.2481 28.3688 30.9806 30.6161C28.7137 32.8628 25.7355 33.9803 22.7567 33.9803C19.7903 33.9803 16.7997 32.851 14.5326 30.6158L14.5323 30.6156C12.2534 28.3808 11.1199 25.4448 11.1199 22.5081C11.1199 19.5837 12.2654 16.6354 14.5326 14.4004ZM29.5663 29.2212L29.5665 29.221C31.4446 27.3573 32.384 24.9447 32.384 22.5081C32.384 20.0717 31.4447 17.6468 29.5663 15.7949L29.5659 15.7946C27.6756 13.9431 25.2283 13.017 22.7567 13.017C20.2853 13.017 17.8257 13.943 15.9471 15.7949L15.9469 15.7952C14.0688 17.6589 13.1294 20.0715 13.1294 22.5081C13.1294 24.9445 14.0687 27.3694 15.9471 29.2212L15.9475 29.2216C17.8378 31.073 20.2851 31.9992 22.7567 31.9992C25.2281 31.9992 27.6877 31.0732 29.5663 29.2212Z" fill="url(#paint0_linear_15_1707)"/>
<path d="M41.5339 16.1326L41.5334 16.1313C41.3508 15.623 41.6292 15.0582 42.1603 14.876C42.6797 14.7057 43.2501 14.9727 43.4224 15.5034L43.4233 15.506C44.2111 17.7645 44.6111 20.1305 44.6111 22.4964C44.6111 28.0055 42.4778 33.538 38.2112 37.7442C33.9446 41.9504 28.3448 44.0536 22.7568 44.0536C17.1687 44.0536 11.5689 41.9504 7.30229 37.7442C3.03566 33.538 0.902344 28.0174 0.902344 22.5085C0.902344 16.9874 3.03571 11.467 7.30216 7.27283C11.5688 3.05469 17.1687 0.951294 22.7689 0.951294C25.1205 0.951294 27.4599 1.32174 29.7145 2.06264C30.2422 2.23251 30.5255 2.79663 30.352 3.32071C30.1797 3.84077 29.608 4.11935 29.0766 3.94855C27.0272 3.27114 24.9042 2.9324 22.7689 2.9324C17.6882 2.9324 12.6072 4.84407 8.72907 8.66731C4.85105 12.4904 2.91188 17.4876 2.91188 22.4964C2.91188 27.5053 4.85105 32.5025 8.72907 36.3256C12.6071 40.1487 17.6759 42.0605 22.7568 42.0605C27.8371 42.0483 32.9061 40.1489 36.7843 36.3258C40.6746 32.5025 42.6014 27.5055 42.6015 22.4851C42.6139 20.3307 42.2455 18.189 41.5339 16.1326Z" fill="url(#paint1_linear_15_1707)"/>
<path d="M36.0372 9.50406L36.0176 9.4347L35.9473 9.41551L30.6406 7.96351L35.9473 6.51155L36.0175 6.49231L36.0371 6.42298L37.5099 1.20251L38.9828 6.42298L39.0023 6.49226L39.0725 6.51153L44.368 7.96351L39.0725 9.41551L39.0023 9.43478L38.9827 9.50406L37.5099 14.7356L36.0372 9.50406Z" fill="url(#paint2_linear_15_1707)"/>
<path d="M53.8506 13.5785H55.3532V19.9069H53.8506V13.5785ZM54.608 12.5356C54.3355 12.5356 54.1071 12.4527 53.9228 12.2868C53.7384 12.113 53.6462 11.8997 53.6462 11.6468C53.6462 11.3941 53.7384 11.1847 53.9228 11.0188C54.1071 10.8449 54.3355 10.7581 54.608 10.7581C54.8804 10.7581 55.1088 10.841 55.2931 11.0069C55.4775 11.1649 55.5697 11.3664 55.5697 11.6113C55.5697 11.872 55.4775 12.0933 55.2931 12.275C55.1168 12.4488 54.8884 12.5356 54.608 12.5356ZM60.9318 11.6113C61.661 11.6113 62.2941 11.7298 62.8311 11.9669C63.376 12.2038 63.7927 12.5435 64.0812 12.986C64.3697 13.4284 64.5139 13.9538 64.5139 14.5622C64.5139 15.1626 64.3697 15.688 64.0812 16.1384C63.7927 16.5808 63.376 16.9205 62.8311 17.1575C62.2941 17.3945 61.661 17.5131 60.9318 17.5131H59.0324V19.9069H57.4696V11.6113H60.9318ZM60.8596 16.2094C61.5407 16.2094 62.0577 16.0672 62.4103 15.7828C62.7629 15.4984 62.9392 15.0915 62.9392 14.5622C62.9392 14.0329 62.7629 13.6259 62.4103 13.3416C62.0577 13.0571 61.5407 12.9149 60.8596 12.9149H59.0324V16.2094H60.8596ZM69.69 13.5075C70.4994 13.5075 71.1485 13.7405 71.6374 14.2067C72.1263 14.6728 72.3707 15.3641 72.3707 16.2806V19.9069H70.8681V16.4702C70.8681 15.9171 70.7358 15.5023 70.4714 15.2258C70.2069 14.9414 69.8302 14.7992 69.3414 14.7992C68.7885 14.7992 68.3517 14.9651 68.0311 15.2969C67.7105 15.6209 67.5502 16.0909 67.5502 16.7071V19.9069H66.0476V11.1136H67.5502V14.3133C67.7987 14.0526 68.1033 13.8551 68.4639 13.7208C68.8326 13.5785 69.2412 13.5075 69.69 13.5075ZM77.2206 19.9899C76.5714 19.9899 75.9864 19.8516 75.4655 19.5751C74.9446 19.2985 74.5359 18.9154 74.2394 18.4255C73.9508 17.9278 73.8066 17.3669 73.8066 16.7427C73.8066 16.1186 73.9508 15.5616 74.2394 15.0718C74.5359 14.582 74.9446 14.1988 75.4655 13.9222C75.9864 13.6457 76.5714 13.5075 77.2206 13.5075C77.8777 13.5075 78.4668 13.6457 78.9877 13.9222C79.5085 14.1988 79.9132 14.582 80.2018 15.0718C80.4983 15.5616 80.6466 16.1186 80.6466 16.7427C80.6466 17.3669 80.4983 17.9278 80.2018 18.4255C79.9132 18.9154 79.5085 19.2985 78.9877 19.5751C78.4668 19.8516 77.8777 19.9899 77.2206 19.9899ZM77.2206 18.7218C77.7736 18.7218 78.2304 18.5401 78.591 18.1767C78.9516 17.8133 79.1319 17.3353 79.1319 16.7427C79.1319 16.1502 78.9516 15.6722 78.591 15.3087C78.2304 14.9453 77.7736 14.7637 77.2206 14.7637C76.6676 14.7637 76.2108 14.9453 75.8502 15.3087C75.4975 15.6722 75.3213 16.1502 75.3213 16.7427C75.3213 17.3353 75.4975 17.8133 75.8502 18.1767C76.2108 18.5401 76.6676 18.7218 77.2206 18.7218ZM85.7258 13.5075C86.5356 13.5075 87.1841 13.7405 87.6733 14.2067C88.1616 14.6728 88.4062 15.3641 88.4062 16.2806V19.9069H86.9042V16.4702C86.9042 15.9171 86.7716 15.5023 86.5072 15.2258C86.2428 14.9414 85.866 14.7992 85.3771 14.7992C84.8242 14.7992 84.3875 14.9651 84.0668 15.2969C83.7463 15.6209 83.586 16.0909 83.586 16.7071V19.9069H82.0834V13.5785H83.5139V14.3963C83.7624 14.1039 84.0749 13.8828 84.4516 13.7326C84.8282 13.5825 85.2529 13.5075 85.7258 13.5075ZM96.4054 16.7783C96.4054 16.8809 96.3977 17.0272 96.3822 17.2167H91.3448C91.4335 17.6829 91.6617 18.0543 92.0303 18.3307C92.4067 18.5993 92.8718 18.7337 93.4247 18.7337C94.13 18.7337 94.7105 18.5045 95.1678 18.0464L95.9731 18.9588C95.6846 19.2985 95.3203 19.5553 94.8793 19.7291C94.4384 19.903 93.9414 19.9899 93.3885 19.9899C92.6832 19.9899 92.0622 19.8516 91.5257 19.5751C90.9882 19.2985 90.5714 18.9154 90.2751 18.4255C89.9866 17.9278 89.8428 17.3669 89.8428 16.7427C89.8428 16.1265 89.9823 15.5735 90.2631 15.0836C90.5516 14.5859 90.9486 14.1988 91.4533 13.9222C91.958 13.6457 92.5273 13.5075 93.1603 13.5075C93.7855 13.5075 94.3419 13.6457 94.8311 13.9222C95.328 14.1909 95.713 14.5741 95.9852 15.0718C96.2659 15.5616 96.4054 16.1305 96.4054 16.7783ZM93.1603 14.6925C92.6797 14.6925 92.2706 14.8347 91.9339 15.1192C91.6057 15.3957 91.4051 15.767 91.3327 16.2331H94.9749C94.9112 15.7749 94.7148 15.4036 94.3867 15.1192C94.0577 14.8347 93.6486 14.6925 93.1603 14.6925ZM57.4569 26.0452C58.1862 26.0452 58.8193 26.1638 59.3562 26.4008C59.9012 26.6378 60.3179 26.9775 60.6064 27.4199C60.8949 27.8624 61.0392 28.3878 61.0392 28.9961C61.0392 29.5966 60.8949 30.122 60.6064 30.5723C60.3179 31.0148 59.9012 31.3545 59.3562 31.5914C58.8193 31.8285 58.1862 31.947 57.4569 31.947H55.5576V34.3409H53.9949V26.0452H57.4569ZM57.3848 30.6434C58.066 30.6434 58.5829 30.5012 58.9355 30.2167C59.2881 29.9324 59.4644 29.5254 59.4644 28.9961C59.4644 28.4668 59.2881 28.0599 58.9355 27.7755C58.5829 27.4911 58.066 27.3489 57.3848 27.3489H55.5576V30.6434H57.3848ZM66.2152 27.9414C67.0246 27.9414 67.6737 28.1745 68.1626 28.6406C68.6514 29.1068 68.8959 29.7981 68.8959 30.7145V34.3409H67.3932V30.9041C67.3932 30.3511 67.261 29.9363 66.9966 29.6598C66.7322 29.3753 66.3554 29.2332 65.8666 29.2332C65.3136 29.2332 64.8769 29.3991 64.5563 29.7309C64.2357 30.0548 64.0755 30.5249 64.0755 31.1411V34.3409H62.5729V25.5475H64.0755V28.7473C64.3239 28.4865 64.6285 28.289 64.9891 28.1547C65.3577 28.0125 65.7664 27.9414 66.2152 27.9414ZM73.7458 34.4238C73.0967 34.4238 72.5116 34.2856 71.9907 34.009C71.4698 33.7325 71.0611 33.3493 70.7646 32.8595C70.4761 32.3618 70.3318 31.8008 70.3318 31.1767C70.3318 30.5525 70.4761 29.9956 70.7646 29.5057C71.0611 29.0159 71.4698 28.6327 71.9907 28.3562C72.5116 28.0797 73.0967 27.9414 73.7458 27.9414C74.4029 27.9414 74.9919 28.0797 75.5129 28.3562C76.0338 28.6327 76.4385 29.0159 76.727 29.5057C77.0235 29.9956 77.1717 30.5525 77.1717 31.1767C77.1717 31.8008 77.0235 32.3618 76.727 32.8595C76.4385 33.3493 76.0338 33.7325 75.5129 34.009C74.9919 34.2856 74.4029 34.4238 73.7458 34.4238ZM73.7458 33.1557C74.2987 33.1557 74.7555 32.974 75.1162 32.6107C75.4768 32.2473 75.6571 31.7692 75.6571 31.1767C75.6571 30.5841 75.4768 30.1062 75.1162 29.7427C74.7555 29.3793 74.2987 29.1976 73.7458 29.1976C73.1928 29.1976 72.736 29.3793 72.3754 29.7427C72.0228 30.1062 71.8465 30.5841 71.8465 31.1767C71.8465 31.7692 72.0228 32.2473 72.3754 32.6107C72.736 32.974 73.1928 33.1557 73.7458 33.1557ZM82.4673 33.9972C82.291 34.1394 82.0747 34.246 81.8182 34.3172C81.5698 34.3882 81.3053 34.4238 81.0248 34.4238C80.3196 34.4238 79.7747 34.2421 79.3899 33.8787C79.0053 33.5152 78.813 32.9859 78.813 32.2906V29.245H77.7551V28.0599H78.813V26.6141H80.3156V28.0599H82.0346V29.245H80.3156V32.2552C80.3156 32.5633 80.3917 32.8002 80.544 32.9662C80.6963 33.1242 80.9167 33.2032 81.2052 33.2032C81.5418 33.2032 81.8222 33.1163 82.0466 32.9425L82.4673 33.9972ZM86.3771 34.4238C85.728 34.4238 85.143 34.2856 84.6221 34.009C84.1012 33.7325 83.6925 33.3493 83.3959 32.8595C83.1075 32.3618 82.9632 31.8008 82.9632 31.1767C82.9632 30.5525 83.1075 29.9956 83.3959 29.5057C83.6925 29.0159 84.1012 28.6327 84.6221 28.3562C85.143 28.0797 85.728 27.9414 86.3771 27.9414C87.0343 27.9414 87.6233 28.0797 88.1444 28.3562C88.6655 28.6327 89.0702 29.0159 89.3587 29.5057C89.655 29.9956 89.8032 30.5525 89.8032 31.1767C89.8032 31.8008 89.655 32.3618 89.3587 32.8595C89.0702 33.3493 88.6655 33.7325 88.1444 34.009C87.6233 34.2856 87.0343 34.4238 86.3771 34.4238ZM86.3771 33.1557C86.93 33.1557 87.3865 32.974 87.7474 32.6107C88.1082 32.2473 88.2882 31.7692 88.2882 31.1767C88.2882 30.5841 88.1082 30.1062 87.7474 29.7427C87.3865 29.3793 86.93 29.1976 86.3771 29.1976C85.8242 29.1976 85.3674 29.3793 85.0068 29.7427C84.6541 30.1062 84.4778 30.5841 84.4778 31.1767C84.4778 31.7692 84.6541 32.2473 85.0068 32.6107C85.3674 32.974 85.8242 33.1557 86.3771 33.1557ZM97.6112 28.0125V33.3809C97.6112 35.6089 96.4571 36.7229 94.149 36.7229C93.5323 36.7229 92.9467 36.6438 92.3938 36.4858C91.8409 36.3357 91.3844 36.1145 91.0235 35.8222L91.697 34.7082C91.9769 34.9373 92.33 35.1191 92.7546 35.2533C93.187 35.3956 93.6245 35.4667 94.0646 35.4667C94.77 35.4667 95.2867 35.3087 95.6157 34.9927C95.9438 34.6767 96.1083 34.1947 96.1083 33.5468V33.215C95.8517 33.4915 95.5399 33.7009 95.1704 33.8431C94.8018 33.9854 94.3979 34.0564 93.9569 34.0564C93.348 34.0564 92.7951 33.93 92.2982 33.6772C91.809 33.4165 91.4206 33.0531 91.1321 32.587C90.8513 32.1208 90.7109 31.5875 90.7109 30.9871C90.7109 30.3866 90.8513 29.8573 91.1321 29.3991C91.4206 28.933 91.809 28.5735 92.2982 28.3206C92.7951 28.0679 93.348 27.9414 93.9569 27.9414C94.4211 27.9414 94.8423 28.0165 95.2187 28.1666C95.6036 28.3167 95.924 28.5458 96.1807 28.8539V28.0125H97.6112ZM94.1852 32.8002C94.7544 32.8002 95.2187 32.6343 95.5795 32.3025C95.9481 31.9628 96.1324 31.5243 96.1324 30.9871C96.1324 30.4577 95.9481 30.0271 95.5795 29.6953C95.2187 29.3635 94.7544 29.1976 94.1852 29.1976C93.6081 29.1976 93.1353 29.3635 92.7667 29.6953C92.4058 30.0271 92.2258 30.4577 92.2258 30.9871C92.2258 31.5243 92.4058 31.9628 92.7667 32.3025C93.1353 32.6343 93.6081 32.8002 94.1852 32.8002ZM101.017 28.9369C101.45 28.2732 102.211 27.9414 103.301 27.9414V29.3516C103.173 29.3279 103.057 29.3161 102.953 29.3161C102.368 29.3161 101.911 29.486 101.582 29.8257C101.253 30.1576 101.089 30.6395 101.089 31.2715V34.3409H99.5869V28.0125H101.017V28.9369ZM106.993 27.9414C107.938 27.9414 108.66 28.1666 109.156 28.6169C109.662 29.0593 109.914 29.7309 109.914 30.6316V34.3409H108.496V33.5706C108.311 33.847 108.047 34.0604 107.702 34.2105C107.366 34.3527 106.957 34.4238 106.476 34.4238C105.995 34.4238 105.574 34.3449 105.213 34.1868C104.853 34.0209 104.573 33.7958 104.372 33.5113C104.18 33.219 104.083 32.8911 104.083 32.5277C104.083 31.9588 104.296 31.5046 104.721 31.1649C105.154 30.8172 105.831 30.6434 106.752 30.6434H108.411V30.5486C108.411 30.1062 108.275 29.7664 108.003 29.5294C107.738 29.2924 107.342 29.1739 106.813 29.1739C106.452 29.1739 106.095 29.2292 105.742 29.3398C105.398 29.4504 105.106 29.6045 104.865 29.802L104.276 28.7236C104.612 28.4707 105.017 28.2772 105.49 28.1428C105.963 28.0086 106.464 27.9414 106.993 27.9414ZM106.789 33.3454C107.165 33.3454 107.497 33.2625 107.786 33.0966C108.083 32.9227 108.291 32.6778 108.411 32.3618V31.627H106.861C105.995 31.627 105.562 31.9075 105.562 32.4684C105.562 32.7371 105.671 32.9504 105.887 33.1084C106.103 33.2664 106.404 33.3454 106.789 33.3454ZM115.4 27.9414C116.025 27.9414 116.583 28.0758 117.071 28.3443C117.568 28.613 117.957 28.9921 118.237 29.482C118.518 29.9719 118.658 30.5367 118.658 31.1767C118.658 31.8166 118.518 32.3855 118.237 32.8832C117.957 33.373 117.568 33.7523 117.071 34.0209C116.583 34.2895 116.025 34.4238 115.4 34.4238C114.535 34.4238 113.85 34.1394 113.345 33.5706V36.6399H111.842V28.0125H113.273V28.8421C113.521 28.5419 113.826 28.3167 114.187 28.1666C114.555 28.0165 114.96 27.9414 115.4 27.9414ZM115.232 33.1557C115.785 33.1557 116.238 32.974 116.59 32.6107C116.951 32.2473 117.131 31.7692 117.131 31.1767C117.131 30.5841 116.951 30.1062 116.59 29.7427C116.238 29.3793 115.785 29.1976 115.232 29.1976C114.871 29.1976 114.547 29.2806 114.258 29.4465C113.97 29.6045 113.741 29.8336 113.573 30.1338C113.405 30.434 113.321 30.7817 113.321 31.1767C113.321 31.5717 113.405 31.9193 113.573 32.2196C113.741 32.5198 113.97 32.7529 114.258 32.9188C114.547 33.0768 114.871 33.1557 115.232 33.1557ZM123.726 27.9414C124.535 27.9414 125.184 28.1745 125.673 28.6406C126.161 29.1068 126.406 29.7981 126.406 30.7145V34.3409H124.904V30.9041C124.904 30.3511 124.771 29.9363 124.507 29.6598C124.243 29.3753 123.866 29.2332 123.377 29.2332C122.824 29.2332 122.387 29.3991 122.067 29.7309C121.746 30.0548 121.586 30.5249 121.586 31.1411V34.3409H120.084V25.5475H121.586V28.7473C121.835 28.4865 122.139 28.289 122.499 28.1547C122.868 28.0125 123.277 27.9414 123.726 27.9414ZM134.205 28.0125L131.201 34.8505C130.92 35.5378 130.58 36.0197 130.178 36.2962C129.778 36.5807 129.293 36.7229 128.724 36.7229C128.403 36.7229 128.087 36.6715 127.775 36.5688C127.462 36.4661 127.205 36.3239 127.005 36.1422L127.606 35.0519C127.75 35.1863 127.918 35.2929 128.111 35.3719C128.311 35.4509 128.512 35.4904 128.712 35.4904C128.976 35.4904 129.193 35.4232 129.361 35.2889C129.537 35.1546 129.698 34.9294 129.842 34.6134L129.95 34.3645L127.149 28.0125H128.712L130.731 32.6936L132.763 28.0125H134.205ZM141.219 34.4594C140.571 34.4594 139.941 34.3685 139.332 34.1868C138.731 34.0051 138.254 33.7641 137.902 33.4639L138.443 32.267C138.787 32.5356 139.208 32.7568 139.705 32.9306C140.21 33.0966 140.715 33.1795 141.219 33.1795C141.845 33.1795 142.31 33.0807 142.614 32.8832C142.926 32.6857 143.083 32.425 143.083 32.101C143.083 31.8641 142.994 31.6705 142.819 31.5204C142.65 31.3624 142.434 31.2399 142.169 31.153C141.905 31.066 141.544 30.9673 141.088 30.8568C140.446 30.7066 139.925 30.5565 139.524 30.4064C139.132 30.2563 138.792 30.0232 138.503 29.7072C138.222 29.3833 138.082 28.9488 138.082 28.4036C138.082 27.9453 138.207 27.5306 138.455 27.1593C138.711 26.78 139.092 26.4798 139.597 26.2586C140.109 26.0373 140.735 25.9268 141.472 25.9268C141.985 25.9268 142.49 25.99 142.987 26.1164C143.484 26.2428 143.913 26.4245 144.273 26.6615L143.78 27.8585C143.411 27.6451 143.027 27.4832 142.626 27.3726C142.225 27.2619 141.837 27.2067 141.46 27.2067C140.843 27.2067 140.382 27.3094 140.077 27.5148C139.781 27.7202 139.633 27.9928 139.633 28.3325C139.633 28.5695 139.717 28.7631 139.885 28.9132C140.062 29.0633 140.282 29.1818 140.547 29.2687C140.811 29.3556 141.171 29.4544 141.629 29.565C142.254 29.7072 142.766 29.8573 143.167 30.0153C143.568 30.1655 143.908 30.3985 144.189 30.7145C144.478 31.0306 144.621 31.4571 144.621 31.9944C144.621 32.4526 144.493 32.8674 144.237 33.2387C143.988 33.6101 143.608 33.9063 143.095 34.1276C142.582 34.3488 141.957 34.4594 141.219 34.4594ZM148.972 34.4238C148.307 34.4238 147.71 34.2856 147.181 34.009C146.652 33.7325 146.24 33.3493 145.942 32.8595C145.646 32.3618 145.498 31.8008 145.498 31.1767C145.498 30.5525 145.646 29.9956 145.942 29.5057C146.24 29.0159 146.648 28.6327 147.169 28.3562C147.698 28.0797 148.299 27.9414 148.972 27.9414C149.605 27.9414 150.158 28.0679 150.631 28.3206C151.112 28.5735 151.473 28.9369 151.713 29.4109L150.559 30.0745C150.374 29.7823 150.142 29.565 149.861 29.4228C149.589 29.2727 149.288 29.1976 148.96 29.1976C148.399 29.1976 147.935 29.3793 147.566 29.7427C147.197 30.0983 147.013 30.5762 147.013 31.1767C147.013 31.7771 147.193 32.2591 147.554 32.6225C147.922 32.978 148.391 33.1557 148.96 33.1557C149.288 33.1557 149.589 33.0847 149.861 32.9425C150.142 32.7924 150.374 32.5712 150.559 32.2788L151.713 32.9425C151.465 33.4165 151.1 33.7839 150.619 34.0446C150.146 34.2974 149.597 34.4238 148.972 34.4238ZM156.595 27.9414C157.405 27.9414 158.054 28.1745 158.542 28.6406C159.032 29.1068 159.276 29.7981 159.276 30.7145V34.3409H157.773V30.9041C157.773 30.3511 157.641 29.9363 157.376 29.6598C157.112 29.3753 156.736 29.2332 156.246 29.2332C155.693 29.2332 155.257 29.3991 154.936 29.7309C154.616 30.0548 154.456 30.5249 154.456 31.1411V34.3409H152.953V25.5475H154.456V28.7473C154.704 28.4865 155.009 28.289 155.37 28.1547C155.738 28.0125 156.146 27.9414 156.595 27.9414ZM164.126 34.4238C163.477 34.4238 162.892 34.2856 162.371 34.009C161.85 33.7325 161.441 33.3493 161.145 32.8595C160.857 32.3618 160.712 31.8008 160.712 31.1767C160.712 30.5525 160.857 29.9956 161.145 29.5057C161.441 29.0159 161.85 28.6327 162.371 28.3562C162.892 28.0797 163.477 27.9414 164.126 27.9414C164.783 27.9414 165.372 28.0797 165.893 28.3562C166.414 28.6327 166.819 29.0159 167.108 29.5057C167.404 29.9956 167.552 30.5525 167.552 31.1767C167.552 31.8008 167.404 32.3618 167.108 32.8595C166.819 33.3493 166.414 33.7325 165.893 34.009C165.372 34.2856 164.783 34.4238 164.126 34.4238ZM164.126 33.1557C164.679 33.1557 165.135 32.974 165.496 32.6107C165.857 32.2473 166.037 31.7692 166.037 31.1767C166.037 30.5841 165.857 30.1062 165.496 29.7427C165.135 29.3793 164.679 29.1976 164.126 29.1976C163.573 29.1976 163.117 29.3793 162.756 29.7427C162.403 30.1062 162.227 30.5841 162.227 31.1767C162.227 31.7692 162.403 32.2473 162.756 32.6107C163.117 32.974 163.573 33.1557 164.126 33.1557ZM171.874 34.4238C171.224 34.4238 170.64 34.2856 170.118 34.009C169.597 33.7325 169.189 33.3493 168.893 32.8595C168.604 32.3618 168.46 31.8008 168.46 31.1767C168.46 30.5525 168.604 29.9956 168.893 29.5057C169.189 29.0159 169.597 28.6327 170.118 28.3562C170.64 28.0797 171.224 27.9414 171.874 27.9414C172.531 27.9414 173.12 28.0797 173.641 28.3562C174.162 28.6327 174.567 29.0159 174.855 29.5057C175.152 29.9956 175.3 30.5525 175.3 31.1767C175.3 31.8008 175.152 32.3618 174.855 32.8595C174.567 33.3493 174.162 33.7325 173.641 34.009C173.12 34.2856 172.531 34.4238 171.874 34.4238ZM171.874 33.1557C172.427 33.1557 172.884 32.974 173.244 32.6107C173.605 32.2473 173.785 31.7692 173.785 31.1767C173.785 30.5841 173.605 30.1062 173.244 29.7427C172.884 29.3793 172.427 29.1976 171.874 29.1976C171.321 29.1976 170.864 29.3793 170.503 29.7427C170.151 30.1062 169.975 30.5841 169.975 31.1767C169.975 31.7692 170.151 32.2473 170.503 32.6107C170.864 32.974 171.321 33.1557 171.874 33.1557ZM176.736 25.5475H178.239V34.3409H176.736V25.5475Z" fill="#EEECEC"/>
<defs>
<linearGradient id="paint0_linear_15_1707" x1="11.1199" y1="11.0359" x2="34.0619" y2="34.3072" gradientUnits="userSpaceOnUse">
<stop stop-color="#D41C3D"/>
<stop offset="1" stop-color="#861B83"/>
</linearGradient>
<linearGradient id="paint1_linear_15_1707" x1="0.902344" y1="0.951294" x2="44.0005" y2="44.6558" gradientUnits="userSpaceOnUse">
<stop stop-color="#D41C3D"/>
<stop offset="1" stop-color="#861B83"/>
</linearGradient>
<linearGradient id="paint2_linear_15_1707" x1="30.6406" y1="1.20251" x2="44.1723" y2="14.9285" gradientUnits="userSpaceOnUse">
<stop stop-color="#D41C3D"/>
<stop offset="1" stop-color="#861B83"/>
</linearGradient>
</defs>
</svg>
